<svg width="85" height="85" viewBox="0 0 85 85" fill="none" xmlns="http://www.w3.org/2000/svg">
<path d="M67.5114 74.2662C60.5899 81.1877 42.8642 74.684 27.9199 59.7398C12.9757 44.7956 6.47201 27.0698 13.3935 20.1483L17.9508 15.591C21.097 12.4448 26.2811 12.528 29.5298 15.7767L36.5887 22.8356C39.8374 26.0843 39.9206 31.2684 36.7744 34.4146L35.7956 35.3935C34.0969 37.0921 33.9307 39.8324 35.5091 41.7451C37.0315 43.59 38.6729 45.4276 40.4525 47.2072C42.2321 48.9868 44.0697 50.6282 45.9146 52.1506C47.8273 53.729 50.5676 53.5628 52.2662 51.8641L53.2451 50.8853C56.3913 47.7391 61.5754 47.8223 64.8241 51.071L71.883 58.1299C75.1317 61.3786 75.2149 66.5627 72.0687 69.7089L67.5114 74.2662Z" fill="#BFAF8E"/>
<path d="M62.4264 34.5338C61.5622 32.4258 60.2744 30.4509 58.5628 28.7393C56.9479 27.1244 55.0985 25.8867 53.1242 25.0262" stroke="#1D1D1D" stroke-width="5.3125" stroke-linecap="round"/>
<path d="M53.1225 12.9746C57.8494 14.687 62.2843 17.4379 66.0739 21.2275C69.9585 25.1121 72.7518 29.675 74.4538 34.5353" stroke="#1D1D1D" stroke-width="5.3125" stroke-linecap="round"/>
</svg>
