<svg width="83" height="70" viewBox="0 0 83 70" fill="none" xmlns="http://www.w3.org/2000/svg">
<path d="M77.2491 0.568535L3.11761 28.6471C-0.937563 29.8162 -0.808345 33.8222 2.18842 34.8006L20.7721 40.5972L27.8794 62.3991C28.747 64.7805 29.4485 65.6789 30.9254 65.7036C32.4022 65.7282 33.0729 65.1559 34.6852 63.7283C36.5681 61.9622 39.4418 59.1746 43.9831 54.7564L63.3052 69.0387C66.862 71.0017 69.4588 69.9864 70.3202 65.7343L82.4365 5.79903C83.7288 0.580842 80.652 -0.975999 77.2491 0.568535ZM23.6642 39.2311L65.8835 12.7709C67.9696 11.3741 68.6218 12.9309 67.6804 14.0016L32.6053 45.5385L30.8023 61.2791L23.6642 39.2311Z" fill="#00C2FF"/>
</svg>
