<svg width="66" height="66" viewBox="0 0 66 66" fill="none" xmlns="http://www.w3.org/2000/svg">
<g clip-path="url(#clip0_227_307)">
<path d="M0 66L5.676 48.9731C2.7959 44.129 1.13793 38.4757 1.13793 32.431C1.13793 14.52 15.6579 0 33.569 0C51.48 0 66 14.52 66 32.431C66 50.3421 51.48 64.8621 33.569 64.8621C28.1194 64.8621 22.9873 63.5113 18.48 61.1376L0 66Z" fill="#2CB742"/>
<path d="M54.2599 43.2243C52.7624 40.3942 47.24 37.1579 47.24 37.1579C45.9906 36.4456 44.4828 36.3659 43.7705 37.6359C43.7705 37.6359 41.9759 39.7877 41.5196 40.0972C39.4349 41.5094 37.5039 41.4548 35.5546 39.5055L31.0245 34.9754L26.4944 30.4453C24.5451 28.496 24.4905 26.5649 25.9027 24.4803C26.2122 24.0239 28.364 22.2294 28.364 22.2294C29.6339 21.5159 29.5543 20.0093 28.8419 18.7599C28.8419 18.7599 25.6057 13.2375 22.7756 11.74C21.5717 11.1027 20.0935 11.3258 19.1308 12.2885L17.1303 14.2889C10.7841 20.6352 13.9089 27.7996 20.2551 34.1458L26.0551 39.9459L31.8552 45.7459C38.2014 52.0922 45.3658 55.2169 51.7121 48.8707L53.7126 46.8702C54.6752 45.9052 54.8971 44.427 54.2599 43.2243Z" fill="white"/>
</g>
<defs>
<clipPath id="clip0_227_307">
<rect width="66" height="66" fill="white"/>
</clipPath>
</defs>
</svg>
