<svg width="84" height="93" viewBox="0 0 84 93" fill="none" xmlns="http://www.w3.org/2000/svg">
<path d="M74.6902 8.62352C71.2698 5.80819 67.2477 3.81744 62.9348 2.8052C52.2009 -0.0376626 41.0105 -0.72848 30.0084 0.772591C24.3816 1.42197 18.9297 3.13576 13.9433 5.8226C8.0691 9.11943 4.02489 13.8691 2.23678 20.4557C1.02429 25.1369 0.321723 29.9354 0.141333 34.7676C-0.214892 41.9131 0.0156084 49.0097 1.84563 55.9736C3.94107 64.0411 8.55803 69.9432 16.4369 73.1422C17.296 73.4845 18.1063 73.9594 18.9584 74.3156C19.3007 74.4365 19.5903 74.6727 19.7776 74.9836C19.9649 75.2945 20.0383 75.6609 19.9852 76.02C19.9852 81.6078 19.9852 87.1956 19.9852 93C22.0806 91.0023 23.4776 89.5077 24.5253 88.3552C27.6336 84.8628 30.5672 81.9291 33.8012 78.5764C35.4426 76.8861 34.7511 76.9699 37.2936 77.0118C40.2831 77.0607 44.9769 77.1724 47.9664 76.9419C53.638 76.6125 59.258 75.6758 64.7299 74.148C71.7147 72.0526 77.2607 68.3367 80.0965 61.303C80.8842 59.4508 81.5355 57.5435 82.0453 55.5964C84.7624 44.4207 84.3991 33.1891 82.1291 21.9855C81.0464 16.7748 78.8183 12.1508 74.6902 8.62352ZM40.1154 15.4127C40.1713 14.3371 40.8139 13.918 41.8057 13.9669C50.446 14.379 56.9488 16.9494 61.9499 23.6827C64.8836 27.6291 66.4621 32.9586 66.6228 37.9039C66.6228 38.6443 66.6577 39.3776 66.6228 40.111C66.5879 40.8444 66.2177 41.5569 65.2957 41.5639C64.3737 41.5709 63.8987 41.068 63.8498 40.125C63.6475 36.492 62.8573 32.9159 61.5099 29.536C58.8068 22.9633 53.631 19.4221 46.9815 17.7178C45.2292 17.2411 43.4392 16.9162 41.6311 16.7469C40.8139 16.677 40.0526 16.5024 40.1154 15.4127ZM48.8255 24.5908C47.0824 23.9513 45.2811 23.4834 43.4472 23.1938C42.5531 23.0611 41.9105 22.5862 42.0502 21.5454C42.0602 21.338 42.1163 21.1354 42.2144 20.9523C42.3125 20.7693 42.4502 20.6104 42.6175 20.4873C42.7848 20.3642 42.9774 20.2799 43.1813 20.2406C43.3853 20.2013 43.5954 20.2081 43.7964 20.2602C49.8243 20.826 54.5321 23.0541 57.766 28.2438C59.2963 30.812 60.0822 33.7552 60.0361 36.7444C59.9453 38.5814 59.6659 39.0564 58.6392 39.0284C57.1095 38.9865 57.333 37.7292 57.2422 36.8072C57.0572 35.3902 56.7653 33.9893 56.3691 32.6163C55.9025 30.7454 54.964 29.0253 53.6434 27.6203C52.3227 26.2153 50.664 25.1722 48.8255 24.5908ZM53.9314 34.7607C53.9055 35.161 53.8589 35.5596 53.7917 35.9551C53.7485 36.2667 53.5908 36.5509 53.3493 36.7524C53.1077 36.9539 52.7998 37.0581 52.4855 37.0447C52.1725 37.0583 51.8651 36.9584 51.62 36.7633C51.3748 36.5682 51.2084 36.2911 51.1514 35.9831C51.0187 35.543 50.9838 35.068 50.893 34.5861C50.7369 33.4662 50.2448 32.4199 49.4815 31.5856C48.7183 30.7513 47.7199 30.1681 46.6183 29.9132C46.3249 29.8364 46.0176 29.7944 45.7172 29.7106C44.9559 29.5011 44.006 29.4872 43.978 28.3696C43.978 27.4476 44.6765 26.8957 45.9198 26.8189C46.9516 26.8515 47.9641 27.1065 48.8883 27.5663C52.0595 29.1449 53.5402 31.3172 53.9314 34.7607ZM66.6577 60.388C65.9015 62.2009 64.7363 63.8144 63.2532 65.1024C61.7701 66.3904 60.0093 67.3181 58.1083 67.8128C56.6951 68.1332 55.2147 67.9556 53.9174 67.3099C35.6312 59.5219 22.4229 46.6837 14.9422 28.146C14.401 26.8817 14.1275 25.519 14.1389 24.1437C14.1389 19.3661 18.3298 14.9587 22.9258 14.7003C23.5282 14.6619 24.1318 14.751 24.6975 14.9616C25.2631 15.1722 25.778 15.4997 26.2087 15.9226C29.4088 18.9143 32.0155 22.4832 33.8919 26.4418C34.9187 28.6071 34.4857 30.1368 32.6347 31.6874C32.3413 31.9319 32.02 32.1484 31.7057 32.3859C29.2471 34.1879 28.6952 36.025 29.8757 38.8538C31.7453 43.4044 34.9974 47.2526 39.1725 49.8549C40.7363 50.9331 42.4463 51.7822 44.2504 52.3764C44.9961 52.6197 45.8005 52.6152 46.5433 52.3633C47.2861 52.1115 47.9275 51.626 48.3715 50.9794C48.4972 50.8328 48.609 50.6721 48.7207 50.5184C51.0746 47.2495 53.6101 46.6838 57.0187 48.8072C59.9401 50.6388 62.7186 52.6888 65.3306 54.9398C67.1117 56.4555 67.5657 58.2366 66.6577 60.388Z" fill="#8744D2"/>
</svg>
