<svg width="31" height="30" viewBox="0 0 31 30" xmlns="http://www.w3.org/2000/svg">
<path d="M15.1534 0.5H15.1534C13.2492 0.49985 11.3636 0.874777 9.60435 1.60337C7.84507 2.33197 6.24653 3.39996 4.90002 4.74637C3.5535 6.09278 2.48538 7.69124 1.75665 9.45046C1.02791 11.2097 0.652832 13.0952 0.652832 14.9994V15.0076C0.652832 15.0077 0.652832 15.0077 0.652832 15.0077C0.653145 18.8512 2.18011 22.5372 4.89788 25.255C7.61565 27.9727 11.3016 29.4997 15.1451 29.5L15.1534 0.5ZM15.1534 0.5C18.9989 0.5 22.6869 2.02761 25.4061 4.74678C28.1252 7.46595 29.6528 11.1539 29.6528 14.9994V15.0076C29.6528 15.0077 29.6528 15.0077 29.6528 15.0077C29.6525 18.8512 28.1256 22.5372 25.4078 25.255C22.69 27.9727 19.004 29.4997 15.1605 29.5C15.1605 29.5 15.1605 29.5 15.1605 29.5M15.1534 0.5L15.1605 29.5M15.1605 29.5H15.1452H15.1605Z" stroke="currentColor" fill="none"/>
<path d="M16.5639 24.5202V16.2053H19.3552L19.7726 12.9659H16.5639V10.897C16.5639 9.95942 16.824 9.31981 18.1694 9.31981H19.8861V6.4209C19.0555 6.33312 18.2208 6.2905 17.3856 6.29321C14.9111 6.29321 13.2169 7.80297 13.2169 10.5766V12.9659H10.4197V16.2053H13.2169V24.5202H16.5639Z" fill="currentColor"/>
</svg>
