<svg width="32" height="32" viewBox="0 0 32 32" xmlns="http://www.w3.org/2000/svg">
<path d="M15.7153 31H15.7306C19.7067 30.9997 23.5199 29.42 26.3314 26.6085C29.143 23.797 30.7226 19.9838 30.7229 16.0077V15.9994C30.7229 14.0297 30.335 12.0792 29.5812 10.2594C28.8274 8.43957 27.7225 6.78605 26.3297 5.39323C24.9369 4.0004 23.2834 2.89555 21.4636 2.14176C19.6437 1.38797 17.6933 1 15.7235 1V1C11.7454 1 7.93027 2.58029 5.11734 5.39323C2.3044 8.20616 0.724121 12.0213 0.724121 15.9994V16.0077C0.724435 19.9836 2.30391 23.7966 5.11519 26.6081C7.92647 29.4196 11.7394 30.9994 15.7153 31V31Z" stroke="currentColor" stroke-miterlimit="10" fill="none"/>
<path d="M15.7223 9.69442C17.7771 9.69442 18.0194 9.70151 18.8317 9.73934C19.3193 9.74537 19.8024 9.83494 20.2598 10.0042C20.5916 10.1317 20.8929 10.3274 21.1442 10.5787C21.3955 10.83 21.5913 11.1313 21.7187 11.4631C21.888 11.9205 21.9775 12.4036 21.9836 12.8913C22.0214 13.7035 22.0285 13.9458 22.0285 15.9994C22.0285 18.053 22.0214 18.2966 21.9836 19.1088C21.9775 19.5965 21.888 20.0795 21.7187 20.537C21.5913 20.8687 21.3955 21.17 21.1442 21.4214C20.8929 21.6727 20.5916 21.8684 20.2598 21.9959C19.8024 22.1651 19.3193 22.2547 18.8317 22.2607C18.0206 22.2986 17.7771 22.3056 15.7223 22.3056C13.6675 22.3056 13.4251 22.2986 12.6141 22.2607C12.1264 22.2547 11.6434 22.1651 11.1859 21.9959C10.8542 21.8684 10.5529 21.6727 10.3016 21.4214C10.0502 21.17 9.85451 20.8687 9.72702 20.537C9.55779 20.0795 9.46822 19.5965 9.4622 19.1088C9.42436 18.2966 9.41727 18.0542 9.41727 15.9994C9.41727 13.9447 9.42436 13.7035 9.4622 12.8913C9.46822 12.4036 9.55779 11.9205 9.72702 11.4631C9.85451 11.1313 10.0502 10.83 10.3016 10.5787C10.5529 10.3274 10.8542 10.1317 11.1859 10.0042C11.6434 9.83494 12.1264 9.74537 12.6141 9.73934C13.4263 9.70151 13.6687 9.69442 15.7223 9.69442ZM15.7223 8.30762C13.6344 8.30762 13.372 8.31708 12.5515 8.35491C11.9136 8.36644 11.2823 8.48638 10.6847 8.70959C10.1744 8.9068 9.71094 9.2085 9.3241 9.59533C8.93726 9.98217 8.63556 10.4456 8.43835 10.9559C8.21514 11.5536 8.0952 12.1848 8.08367 12.8227C8.04584 13.6432 8.03638 13.9056 8.03638 15.9935C8.03638 18.0814 8.04584 18.3451 8.08367 19.1655C8.0952 19.8034 8.21514 20.4347 8.43835 21.0323C8.63556 21.5426 8.93726 22.0061 9.3241 22.3929C9.71094 22.7797 10.1744 23.0814 10.6847 23.2787C11.2823 23.5019 11.9136 23.6218 12.5515 23.6333C13.372 23.6712 13.6344 23.6806 15.7223 23.6806C17.8102 23.6806 18.0738 23.6712 18.8943 23.6333C19.5322 23.6218 20.1634 23.5019 20.7611 23.2787C21.2714 23.0814 21.7348 22.7797 22.1217 22.3929C22.5085 22.0061 22.8102 21.5426 23.0074 21.0323C23.2306 20.4347 23.3506 19.8034 23.3621 19.1655C23.3999 18.3451 23.4094 18.0826 23.4094 15.9935C23.4094 13.9045 23.3999 13.6432 23.3621 12.8227C23.3506 12.1848 23.2306 11.5536 23.0074 10.9559C22.8102 10.4456 22.5085 9.98217 22.1217 9.59533C21.7348 9.2085 21.2714 8.9068 20.7611 8.70959C20.1634 8.48638 19.5322 8.36644 18.8943 8.35491C18.0738 8.31708 17.8114 8.30762 15.7223 8.30762Z" fill="currentColor"/>
<path d="M15.7222 12.0507C14.9409 12.0507 14.1772 12.2823 13.5276 12.7164C12.878 13.1505 12.3717 13.7675 12.0728 14.4893C11.7739 15.2111 11.6957 16.0054 11.8482 16.7716C12.0007 17.5379 12.377 18.2417 12.9296 18.7941C13.4821 19.3464 14.186 19.7225 14.9523 19.8748C15.7186 20.0271 16.5128 19.9487 17.2346 19.6495C17.9563 19.3504 18.5731 18.8439 19.007 18.1942C19.4409 17.5445 19.6724 16.7807 19.6721 15.9994C19.6721 15.4808 19.5699 14.9672 19.3714 14.488C19.1729 14.0089 18.8819 13.5735 18.5151 13.2068C18.1483 12.8401 17.7129 12.5493 17.2337 12.3509C16.7544 12.1525 16.2408 12.0505 15.7222 12.0507ZM15.7222 18.5638C15.215 18.5638 14.7192 18.4134 14.2975 18.1316C13.8758 17.8498 13.5471 17.4493 13.353 16.9808C13.1589 16.5122 13.1082 15.9966 13.2071 15.4992C13.3061 15.0017 13.5503 14.5448 13.9089 14.1862C14.2675 13.8275 14.7245 13.5833 15.2219 13.4844C15.7193 13.3854 16.2349 13.4362 16.7035 13.6303C17.1721 13.8244 17.5726 14.1531 17.8543 14.5748C18.1361 14.9965 18.2865 15.4922 18.2865 15.9994C18.2865 16.6795 18.0163 17.3318 17.5354 17.8127C17.0545 18.2936 16.4023 18.5638 15.7222 18.5638Z" fill="currentColor"/>
<path d="M19.8284 12.8179C20.3383 12.8179 20.7517 12.4045 20.7517 11.8945C20.7517 11.3846 20.3383 10.9712 19.8284 10.9712C19.3184 10.9712 18.905 11.3846 18.905 11.8945C18.905 12.4045 19.3184 12.8179 19.8284 12.8179Z" fill="currentColor"/>
</svg>
