<svg width="21" height="21" viewBox="0 0 21 21" xmlns="http://www.w3.org/2000/svg">
<path d="M10.501 1C7.98135 1.0002 5.56499 2.00125 3.78342 3.78297C2.00184 5.56468 1.00098 7.98112 1.00098 10.5007C1.00058 11.748 1.2459 12.9831 1.72291 14.1356C2.19991 15.288 2.89928 16.3352 3.78105 17.2173C4.66281 18.0994 5.70971 18.7992 6.86196 19.2766C8.01421 19.7541 9.24923 19.9999 10.4965 20H10.5062C13.0245 19.9998 15.4396 18.9993 17.2203 17.2186C19.001 15.4379 20.0015 13.0228 20.0017 10.5045V10.5045C20.0022 9.25652 19.7568 8.02068 19.2796 6.86756C18.8024 5.71445 18.1026 4.66665 17.2203 3.78403C16.3381 2.9014 15.2906 2.20125 14.1376 1.72356C12.9847 1.24587 11.7489 1 10.501 1V1Z" stroke="currentColor" stroke-width="0.599038" stroke-miterlimit="10" fill="none"/>
<path d="M14.4739 6.60928L5.4531 10.026C4.95964 10.1683 4.97537 10.6558 5.34003 10.7748L7.6014 11.4802L8.46626 14.1332C8.57184 14.423 8.65721 14.5323 8.83692 14.5353C9.01663 14.5383 9.09825 14.4687 9.29443 14.2949C9.52357 14.08 9.87325 13.7408 10.4259 13.2032L12.7771 14.9411C13.2099 15.18 13.5259 15.0565 13.6307 14.539L15.1051 7.24576C15.2624 6.61078 14.888 6.42133 14.4739 6.60928ZM7.95334 11.314L13.0908 8.09415C13.3447 7.92417 13.4241 8.11361 13.3095 8.24391L9.04134 12.0815L8.82194 13.9969L7.95334 11.314Z" fill="currentColor"/>
</svg>
