<svg width="21" height="21" viewBox="0 0 21 21" xmlns="http://www.w3.org/2000/svg">
<path d="M10.5 1C7.98037 1.0002 5.56401 2.00125 3.78244 3.78297C2.00087 5.56468 1 7.98112 1 10.5007V10.5007C0.999607 11.748 1.24492 12.9831 1.72193 14.1356C2.19894 15.288 2.8983 16.3352 3.78006 17.2173C4.66183 18.0994 5.70874 18.7992 6.86099 19.2766C8.01323 19.7541 9.24825 19.9999 10.4955 20H10.5052C13.0235 19.9998 15.4386 18.9993 17.2194 17.2186C19.0001 15.4379 20.0005 13.0228 20.0007 10.5045C20.0012 9.25652 19.7559 8.02068 19.2786 6.86756C18.8014 5.71445 18.1016 4.66665 17.2194 3.78403C16.3371 2.9014 15.2896 2.20125 14.1366 1.72356C12.9837 1.24587 11.748 1 10.5 1V1Z" stroke="currentColor" stroke-width="0.599038" stroke-miterlimit="10" fill="none"/>
<path fill-rule="evenodd" clip-rule="evenodd" d="M10.5874 5.63507C9.7483 5.63544 8.92432 5.8586 8.1997 6.28175C7.47508 6.7049 6.87581 7.31285 6.46312 8.04348C6.05044 8.77411 5.83915 9.60122 5.85085 10.4403C5.86254 11.2793 6.0968 12.1002 6.52969 12.819L5.67456 15.3649L8.29535 14.5255C8.9283 14.8749 9.63279 15.0749 10.3549 15.11C11.077 15.1451 11.7976 15.0146 12.4615 14.7283C13.1254 14.442 13.7149 14.0077 14.1851 13.4584C14.6552 12.9092 14.9934 12.2596 15.1738 11.5595C15.3542 10.8594 15.372 10.1273 15.2258 9.41928C15.0797 8.71124 14.7734 8.04602 14.3305 7.47458C13.8877 6.90314 13.3199 6.44061 12.6707 6.12242C12.0215 5.80423 11.3081 5.6388 10.5852 5.63881L10.5874 5.63507ZM10.5874 14.3166C9.81521 14.3181 9.05976 14.0915 8.41591 13.6652L6.90034 14.1496L7.3923 12.6857C6.87306 11.9685 6.61034 11.0974 6.64646 10.2126C6.68258 9.32788 7.01543 8.48106 7.59141 7.80852C8.16739 7.13598 8.95297 6.67688 9.82163 6.50516C10.6903 6.33343 11.5915 6.45908 12.38 6.86187C13.1686 7.26465 13.7986 7.92113 14.1687 8.72557C14.5387 9.53001 14.6272 10.4356 14.42 11.2965C14.2127 12.1573 13.7217 12.9234 13.0261 13.4713C12.3304 14.0191 11.4706 14.3169 10.5852 14.3166H10.5874ZM12.8091 11.4495C12.69 11.3843 12.1067 11.0698 11.9974 11.0249C11.8881 10.98 11.808 10.9575 11.7234 11.0758C11.6387 11.1941 11.3961 11.457 11.3227 11.5348C11.2494 11.6127 11.1782 11.6202 11.0592 11.5551C10.7077 11.4 10.3861 11.1846 10.1089 10.9186C9.85361 10.6645 9.63758 10.3738 9.46797 10.056C9.40133 9.93242 9.46797 9.86952 9.53012 9.81186C9.59227 9.7542 9.65667 9.67483 9.71957 9.60669C9.7717 9.54742 9.81485 9.48082 9.84761 9.40901C9.86505 9.37642 9.87417 9.34002 9.87417 9.30306C9.87417 9.26609 9.86505 9.22969 9.84761 9.1971C9.81916 9.1357 9.59976 8.53142 9.50766 8.28582C9.41556 8.04021 9.31447 8.07615 9.24333 8.07315C9.1722 8.07016 9.09357 8.05818 9.01195 8.05518C8.95066 8.05421 8.88984 8.06603 8.83337 8.08988C8.7769 8.11373 8.72602 8.14909 8.68398 8.19371C8.54238 8.31812 8.42824 8.47066 8.34882 8.64161C8.26941 8.81255 8.22646 8.99816 8.22272 9.18661C8.201 9.78565 8.6121 10.3727 8.672 10.4596C8.7319 10.5464 9.45824 11.8321 10.669 12.363C11.8799 12.8939 11.8873 12.7314 12.109 12.7194C12.3306 12.7075 12.8361 12.4536 12.9469 12.1751C13.0577 11.8965 13.0674 11.6509 13.039 11.603C13.0105 11.5551 12.9274 11.5146 12.8091 11.4495Z" fill="currentColor"/>
</svg>
