<svg width="30" height="30" viewBox="0 0 30 30" xmlns="http://www.w3.org/2000/svg">
<path d="M15.0065 29.5C15.0065 29.5 15.0065 29.5 15.0065 29.5C18.8502 29.4997 22.5364 27.9726 25.2542 25.2545C27.972 22.5365 29.4988 18.8502 29.4988 15.0065V14.9994C29.4988 11.1539 27.9712 7.46594 25.252 4.74678C22.5329 2.02761 18.8449 0.5 14.9994 0.5C11.1539 0.5 7.46594 2.02761 4.74677 4.74678C2.02761 7.46594 0.5 11.1539 0.5 14.9994V15.0065C0.5 18.85 2.02668 22.5362 4.74425 25.2541C7.46179 27.9721 11.1476 29.4994 14.9911 29.5H15.0065ZM15.0065 29.5H14.9912H15.0065Z" stroke="currentColor" fill="none"/>
<path d="M19.2662 17.6464C18.9935 17.6464 18.8567 17.8548 18.856 18.2718V18.6903H19.6741V18.2765C19.6741 17.8544 19.5369 17.6464 19.2662 17.6464Z" fill="currentColor"/>
<path d="M21.2654 15.3516C21.1896 15.0055 21.0082 14.6915 20.7462 14.4531C20.4842 14.2146 20.1546 14.0634 19.8029 14.0204C18.1241 13.8336 16.4264 13.8324 14.7346 13.8336C13.0428 13.8348 11.345 13.8336 9.6662 14.0204C9.3147 14.0633 8.9852 14.2143 8.72323 14.4526C8.46126 14.6908 8.27974 15.0046 8.20374 15.3504C7.96729 16.3755 7.96729 17.4939 7.96729 18.5496C7.96729 19.6054 7.96729 20.7238 8.20374 21.7489C8.27938 22.0946 8.46046 22.4083 8.72199 22.6468C8.98352 22.8852 9.3126 23.0366 9.66383 23.0801C11.3427 23.2681 13.0404 23.2681 14.7322 23.2681C16.424 23.2681 18.1218 23.2681 19.8006 23.0801C20.1521 23.0372 20.4816 22.8861 20.7436 22.6479C21.0055 22.4096 21.187 22.0959 21.263 21.75C21.4995 20.725 21.4995 19.6066 21.4995 18.5508C21.4995 17.4951 21.5019 16.3766 21.2654 15.3516ZM11.8262 16.2738H10.8461V21.4758H9.93694V16.2738H8.97458V15.4214H11.8262V16.2738ZM14.2971 21.4758H13.479V20.9827C13.1539 21.3563 12.8453 21.5372 12.5438 21.5372C12.2802 21.5372 12.0993 21.4308 12.0177 21.2015C11.9607 20.9828 11.9364 20.7569 11.9456 20.5311V16.9654H12.7625V20.2864C12.7579 20.3925 12.7607 20.4987 12.7708 20.6044C12.7897 20.7309 12.8524 20.7959 12.9612 20.7959C13.1255 20.7959 13.2969 20.6694 13.479 20.4129V16.9654H14.2971V21.4758ZM17.4041 20.1209C17.4153 20.4262 17.3879 20.7316 17.3226 21.03C17.2126 21.3658 16.9939 21.5372 16.6688 21.5372C16.3779 21.5372 16.0965 21.3764 15.8234 21.0383V21.4758H15.0053V15.4214H15.8234V17.3993C16.0871 17.0742 16.3673 16.9098 16.6688 16.9098C16.9939 16.9098 17.2126 17.0813 17.3226 17.4194C17.3891 17.7172 17.4165 18.0225 17.4041 18.3274V20.1209ZM20.491 19.3678H18.856V20.1682C18.856 20.5855 18.9931 20.7948 19.2733 20.7948C19.4743 20.7948 19.5925 20.6848 19.6386 20.4661C19.6547 20.2817 19.6606 20.0966 19.6563 19.9116H20.491V20.0298C20.491 20.2935 20.4816 20.4756 20.4745 20.5571C20.4484 20.7327 20.383 20.9 20.2829 21.0466C20.1737 21.2061 20.0253 21.3348 19.8521 21.4205C19.6788 21.5062 19.4864 21.546 19.2934 21.536C19.1033 21.5454 18.9138 21.5081 18.7413 21.4276C18.5689 21.347 18.4187 21.2256 18.3038 21.0738C18.13 20.848 18.0414 20.4921 18.0414 20.0097V18.4361C18.0414 17.9538 18.1206 17.6015 18.2944 17.3721C18.4075 17.221 18.5558 17.0999 18.7264 17.0191C18.897 16.9383 19.0847 16.9004 19.2733 16.9087C19.4598 16.9006 19.6454 16.9387 19.8137 17.0195C19.982 17.1004 20.1277 17.2215 20.238 17.3721C20.4094 17.6003 20.491 17.9526 20.491 18.4361V19.3678Z" fill="currentColor"/>
<path d="M16.2302 17.6464C16.1527 17.6511 16.0769 17.6711 16.0071 17.7052C15.9373 17.7393 15.8749 17.7868 15.8235 17.845V20.5961C15.8743 20.6554 15.9364 20.7038 16.0063 20.7385C16.0762 20.7733 16.1523 20.7936 16.2302 20.7983C16.4666 20.7983 16.5849 20.5961 16.5849 20.1882V18.2623C16.5872 17.8544 16.4666 17.6464 16.2302 17.6464Z" fill="currentColor"/>
<path fill-rule="evenodd" clip-rule="evenodd" d="M13.3158 6.89722H12.3901L11.7647 9.29958L11.1144 6.89722H10.1509C10.3436 7.46352 10.5446 8.03456 10.742 8.60205C10.9715 9.23392 11.1584 9.8805 11.3012 10.5374V13.0202H12.2175V10.5374L13.3158 6.89722ZM15.7655 11.5376V9.94155C15.7655 9.45446 15.6815 9.0986 15.5089 8.86806C15.3942 8.72245 15.2479 8.60475 15.0811 8.52383C14.9143 8.44291 14.7313 8.40087 14.546 8.40087C14.3606 8.40087 14.1776 8.44291 14.0108 8.52383C13.844 8.60475 13.6977 8.72245 13.583 8.86806C13.4068 9.0986 13.3241 9.45919 13.3241 9.94155V11.5376C13.3241 12.0223 13.4068 12.3817 13.583 12.6099C13.6977 12.7555 13.844 12.8732 14.0108 12.9541C14.1776 13.0351 14.3606 13.0771 14.546 13.0771C14.7313 13.0771 14.9143 13.0351 15.0811 12.9541C15.2479 12.8732 15.3942 12.7555 15.5089 12.6099C15.6815 12.3829 15.7655 12.0235 15.7655 11.5376ZM14.9379 11.6937C14.9379 12.1157 14.8102 12.3262 14.543 12.3262C14.2758 12.3262 14.1493 12.1157 14.1493 11.6937V9.77604C14.1493 9.35397 14.277 9.14471 14.543 9.14471C14.809 9.14471 14.9379 9.35397 14.9379 9.77604V11.6937ZM18.8192 13.0143V8.45544H17.9917V11.9408C17.8084 12.1997 17.637 12.3274 17.4703 12.3274C17.3592 12.3274 17.2941 12.2623 17.2764 12.1347C17.2634 12.028 17.2598 11.9204 17.2658 11.8131V8.45544H16.4382V12.0614C16.4285 12.2896 16.4532 12.5179 16.5115 12.7388C16.5931 12.9752 16.7775 13.0781 17.0435 13.0781C17.3438 13.0781 17.6583 12.8949 17.9893 12.5177V13.0154L18.8192 13.0143Z" fill="currentColor"/>
</svg>
