<svg width="74" height="90" viewBox="0 0 74 90" fill="none" xmlns="http://www.w3.org/2000/svg">
<g clip-path="url(#clip0_221_169)">
<path d="M72.0371 21.8895L72.0371 21.8901L72.037 21.8906L72.037 21.8915L72.0369 21.8929L72.0368 21.894L72.033 21.9385V21.9876V80.7014C72.033 85.1867 68.3796 88.842 63.8952 88.842H9.2949C4.81052 88.842 1.15711 85.1866 1.15711 80.7014V9.29757C1.15711 4.81243 4.81052 1.15697 9.2949 1.15697L50.2331 1.15665V0.869069L50.252 1.14494C50.2525 1.15844 50.2525 1.15844 50.2524 1.15844L50.2529 1.15842L50.2596 1.15823C50.2695 1.15795 50.2867 1.15752 50.3108 1.1572C50.3591 1.15656 50.4346 1.15634 50.5334 1.15851C50.7314 1.16284 51.0202 1.17667 51.3676 1.21509C52.0698 1.29273 52.9742 1.46681 53.8452 1.84058L54.3001 0.78058L53.8452 1.84058C54.6012 2.16495 55.2429 2.57437 55.698 2.90641C55.924 3.07128 56.0999 3.21406 56.2164 3.31293C56.2745 3.36228 56.3176 3.40044 56.3444 3.42464C56.3514 3.43097 56.3573 3.43633 56.3621 3.44068C56.3651 3.4434 56.3676 3.44572 56.3697 3.44763L56.3769 3.455L56.3848 3.46281L69.8634 16.6835L69.8758 16.7004L69.9479 16.7694L69.9481 16.7697L69.9489 16.7704L69.9494 16.7709L69.9497 16.7712L69.95 16.7715L69.952 16.7734C69.9567 16.7781 69.9654 16.7868 69.9778 16.7992C70.0024 16.8241 70.0413 16.8642 70.0915 16.9182C70.1921 17.0265 70.3366 17.1893 70.5017 17.3971C70.8356 17.8174 71.2352 18.3986 71.5332 19.0667C71.838 19.7499 71.9677 20.4627 72.0173 21.0212C72.0418 21.2967 72.0459 21.525 72.0442 21.6802C72.0434 21.7575 72.0411 21.8159 72.0393 21.8521C72.0384 21.8701 72.0376 21.8826 72.0371 21.889L72.0371 21.8895Z" stroke="black" stroke-width="2.31429"/>
<path d="M18.2751 53.5848C16.1737 51.4834 18.4472 48.5959 24.6172 45.5296L28.4995 43.6003L30.012 40.291C30.8438 38.471 32.0853 35.5012 32.7709 33.6916L34.0174 30.4014L33.1584 27.9665C32.1022 24.9725 31.7256 20.4733 32.3957 18.8554C33.3034 16.6641 36.2766 16.8889 37.4537 19.2379C38.373 21.0725 38.279 24.3949 37.1893 28.5849L36.2959 32.02L37.0829 33.3559C37.5157 34.0906 38.7799 35.8352 39.8922 37.2327L41.9829 39.8332L44.5843 39.4937C52.8488 38.4153 55.6794 40.2482 55.6794 42.8762C55.6794 46.1929 49.1901 46.4667 43.7407 42.6393C42.5145 41.7781 41.6725 40.9226 41.6725 40.9226C41.6725 40.9226 38.2587 41.6176 36.5778 42.0706C34.8428 42.5383 33.9773 42.8311 31.4358 43.689C31.4358 43.689 30.5441 44.9839 29.963 45.9253C27.8013 49.4277 25.2771 52.3303 23.4745 53.3867C21.4562 54.5695 19.3404 54.6501 18.2751 53.5848ZM21.5728 52.4067C22.754 51.6766 25.1448 48.849 26.7998 46.2246L27.4699 45.162L24.4189 46.696C19.7067 49.0652 17.551 51.2982 18.6719 52.6489C19.3017 53.4077 20.055 53.3448 21.5728 52.4067ZM52.1812 43.8151C53.3365 43.0059 53.1688 41.3751 51.8626 40.7176C50.8461 40.2059 50.0268 40.1008 47.3861 40.1398C45.7634 40.2505 43.154 40.5775 42.7118 40.677C42.7118 40.677 44.1453 41.6677 44.7817 42.0318C45.6289 42.5157 47.6877 43.414 49.1909 43.8741C50.6736 44.3279 51.5313 44.2801 52.1812 43.8151ZM39.8739 38.6999C39.1747 37.9649 37.9858 36.4308 37.2319 35.2908C36.2458 33.9977 35.7514 33.0853 35.7514 33.0853C35.7514 33.0853 35.0307 35.4035 34.4394 36.7984L32.5947 41.358L32.0599 42.3922C32.0599 42.3922 34.9032 41.4599 36.3499 41.0821C37.8821 40.6818 40.9919 40.0703 40.9919 40.0703L39.8739 38.6999ZM35.9078 22.7946C36.0861 21.298 36.1618 19.8035 35.681 19.0499C34.3472 17.5918 32.7373 18.8077 33.01 22.2743C33.1018 23.4404 33.3915 25.434 33.7788 26.6627L34.483 28.8967L34.9786 27.2141C35.2512 26.2887 35.6694 24.2999 35.9078 22.7946Z" fill="#BFAF8E"/>
<path d="M21.8486 63.3157H25.2602C26.3503 63.3157 27.2352 63.42 27.9148 63.6286C28.5945 63.8304 29.1664 64.2846 29.6307 64.9912C30.095 65.691 30.3272 66.5355 30.3272 67.5247C30.3272 68.4331 30.1388 69.2137 29.762 69.8664C29.3851 70.5191 28.8771 70.9902 28.2378 71.2795C27.6053 71.5689 26.6296 71.7135 25.3107 71.7135H24.1297V77.0934H21.8486V63.3157ZM24.1297 65.082V69.8866H25.2602C26.2696 69.8866 26.966 69.6982 27.3496 69.3213C27.7399 68.9445 27.935 68.3322 27.935 67.4843C27.935 66.8518 27.8072 66.3404 27.5515 65.9501C27.2957 65.5531 27.0131 65.3108 26.7036 65.2234C26.4008 65.1291 25.9197 65.082 25.2602 65.082L24.1297 65.082ZM32.0734 63.3157H35.1721C36.6727 63.3157 37.8705 63.5815 38.7654 64.113C39.6671 64.6446 40.3468 65.4353 40.8043 66.4851C41.2686 67.5348 41.5008 68.6989 41.5008 69.9774C41.5008 71.3232 41.2922 72.5244 40.875 73.5809C40.4645 74.6306 39.832 75.4784 38.9774 76.1244C38.1295 76.7704 36.9183 77.0934 35.3437 77.0934H32.0734V63.3157ZM34.3545 65.1426V75.2665H35.3033C36.629 75.2665 37.5912 74.8089 38.1901 73.8937C38.789 72.9719 39.0884 71.7438 39.0884 70.2096C39.0884 66.8316 37.8267 65.1426 35.3033 65.1426H34.3545ZM43.6911 63.3157H51.3421V65.1426H45.9723V69.2608H50.2721V71.0877H45.9723V77.0934H43.6911V63.3157Z" fill="black"/>
</g>
<defs>
<clipPath id="clip0_221_169">
<rect width="73.202" height="90" fill="white"/>
</clipPath>
</defs>
</svg>
