<svg width="168" height="68" viewBox="0 0 168 68" fill="none" xmlns="http://www.w3.org/2000/svg">
<g id="&#208;&#176;&#209;&#130;&#208;&#190;&#208;&#187; &#208;&#187;&#208;&#190;&#208;&#179;&#208;&#190; 1" clip-path="url(#clip0_221_1154)">
<path id="Vector" fill-rule="evenodd" clip-rule="evenodd" d="M167.6 34.8397L167.855 34.3798C167.781 34.6097 167.699 34.8561 167.6 35.1066C167.501 35.357 167.436 35.5172 167.345 35.7061C167.255 35.8949 167.181 36.0633 167.091 36.2439C167.001 36.4246 166.927 36.5683 166.836 36.7367L166.586 37.2007L166.331 37.6359C166.249 37.7755 166.163 37.9151 166.077 38.0465C165.99 38.1779 165.908 38.3175 165.822 38.4571L165.568 38.8431L165.317 39.2167C165.231 39.3358 165.145 39.4549 165.063 39.578L164.808 39.9229L164.553 40.2596C164.467 40.3705 164.385 40.4814 164.299 40.5881C164.213 40.6949 164.13 40.7975 164.044 40.9002C163.958 41.0028 163.876 41.1055 163.79 41.204C163.703 41.3026 163.621 41.4052 163.539 41.4956L163.313 41.746L163.285 41.7789C163.198 41.8692 163.116 41.9595 163.03 42.0458C162.944 42.132 162.862 42.2264 162.775 42.3127L162.525 42.5754L162.27 42.8382L162.016 43.0928L161.761 43.3433L161.507 43.5937L161.252 43.8319C161.17 43.9099 161.088 43.992 160.998 44.07L160.747 44.3C160.661 44.3698 160.579 44.4478 160.492 44.5217L160.238 44.7393L159.979 44.9364L159.729 45.1417L159.474 45.347L159.22 45.5441L158.965 45.7371C158.883 45.8028 158.797 45.8644 158.71 45.926C158.624 45.9876 158.546 46.0533 158.456 46.1148L158.205 46.2955L157.951 46.4762L157.696 46.6527L157.442 46.8293L157.347 46.8909L157.187 46.9853L156.933 47.1331L156.682 47.2851L156.428 47.4411L156.173 47.5971L155.918 47.7573L155.664 47.9174L155.413 48.0734L155.159 48.2253L154.904 48.3732L154.65 48.5128L154.395 48.6483L154.145 48.7756L153.89 48.8987L153.635 49.0178L153.381 49.1328L153.126 49.2477L152.872 49.3586L152.621 49.4654L152.367 49.5721L152.112 49.6789L151.857 49.7815L151.352 49.9868L151.098 50.0854L150.843 50.188L150.589 50.2866L150.084 50.4837L149.825 50.5781L149.575 50.6766L149.406 50.7423H149.32L149.065 50.8204L148.811 50.8943L148.56 50.9682L148.306 51.0421L148.051 51.1201L147.797 51.1899L147.542 51.2638L147.037 51.4116L146.782 51.4814L146.273 51.621L146.023 51.6908L145.768 51.7565L145.514 51.8222L145.259 51.8879L145.005 51.9536L144.75 52.0152L144.495 52.0768L144.245 52.1343L143.99 52.1918L143.736 52.2493L143.481 52.3026L143.227 52.356L142.976 52.4053L142.722 52.4546L142.467 52.4997L142.212 52.5449L141.958 52.586L141.703 52.627L141.453 52.6681L141.198 52.705L140.944 52.7379L140.689 52.7748H140.578H140.435L140.184 52.8036L139.929 52.8282L139.675 52.8569L139.42 52.8816L139.166 52.9062L138.915 52.9309L138.661 52.9514H138.406L138.152 52.976L137.897 52.9966H137.642L137.392 53.0171H137.137H136.883H136.628H136.374H136.123H135.869H135.614H135.359H135.105H134.6H134.345H134.091H133.836H133.582H133.327H130.284H129.775H129.525H129.266L128.507 52.9924H128.252H127.997L127.492 52.9678H127.238L126.729 52.9432H126.474L125.464 52.8816H125.205L124.446 52.8241H124.191L123.686 52.783L123.431 52.7625L123.177 52.7379L122.672 52.6886L122.417 52.664L122.163 52.6393L121.908 52.6147L121.654 52.586L121.399 52.5613H121.337L121.144 52.5408L120.894 52.512L120.639 52.4833L120.385 52.4546L120.13 52.4258L119.625 52.3642L119.371 52.3314L119.116 52.2985L118.356 52.2L118.098 52.3273L117.334 52.2205L117.079 52.1836L116.32 52.0686L116.065 52.0316L115.56 51.9495L115.306 51.9085L115.051 51.8674L114.542 51.7853L114.287 51.7401L114.033 51.6949L113.782 51.6539L113.528 51.6087L113.273 51.5594L113.019 51.5143L112.514 51.4198L112.259 51.3747L112.004 51.3254L111.245 51.1735L110.99 51.1242L110.481 51.0216L110.226 50.9682L109.972 50.9148L109.721 50.8614L109.212 50.7547L108.958 50.7013L108.453 50.5863L108.198 50.5288L107.943 50.4713L107.689 50.4139L107.184 50.2948L106.929 50.2373L106.166 50.0525L105.911 49.9909L105.661 49.9294L105.406 49.8637L105.151 49.8021L104.897 49.7364L104.137 49.5393L103.883 49.4736L103.373 49.3381L103.123 49.2683L102.868 49.1985L103.123 49.2395L103.883 49.3586L104.137 49.3997L104.392 49.4366L104.897 49.5146L105.151 49.5557L105.911 49.6707L106.166 49.7076L106.42 49.7446L106.675 49.7815L106.929 49.8226L107.184 49.8596L107.943 49.9704L108.198 50.0033L108.453 50.0402L108.707 50.0772L108.958 50.1141L109.212 50.147L109.467 50.1839L109.721 50.2168L109.972 50.2537L110.226 50.2866L110.481 50.3235L110.99 50.3892L111.245 50.4221L111.499 50.4549L112.004 50.5206L112.259 50.5535L112.764 50.6151L113.019 50.6479L113.273 50.6766L113.528 50.7095L113.782 50.7382L114.033 50.767L114.287 50.7957L114.542 50.8286L114.796 50.8573L115.051 50.8819L115.306 50.9107L116.065 50.9928L116.32 51.0216L117.079 51.0996L117.334 51.1242L117.589 51.1488L117.843 51.1735L118.098 51.1981H118.352L118.603 51.2227L119.112 51.2679H119.366L119.621 51.2925L120.126 51.3336L120.381 51.3541L120.635 51.3747L121.14 51.4116H121.395H121.543H121.649L122.159 51.4445H122.413H122.668L123.173 51.4732H123.427H123.682H123.932H124.187H124.442H124.696L125.201 51.4979H125.46H125.71L126.219 51.5184H126.47H126.724H126.979H127.234H127.488H127.743H128.248H131.804H132.563H132.818H133.072H133.323H133.577H133.832H134.087H134.341H134.596H134.85H135.101H135.355H135.61H135.865H136.119L136.624 51.4855H136.879L137.133 51.465H137.388L137.638 51.4445L137.893 51.4239L138.147 51.3993L138.402 51.3747L138.657 51.35L138.911 51.3254L139.162 51.3008L139.416 51.2679L139.671 51.2433L139.925 51.2104L140.18 51.1817H140.221L140.43 51.1571L140.685 51.1242L140.94 51.0914L141.194 51.0544L141.449 51.0174L141.699 50.9805L141.954 50.9394L142.208 50.8943L142.463 50.8491L142.717 50.8039L142.972 50.7547L143.223 50.7013L143.477 50.652L143.732 50.5945L143.986 50.5411L144.241 50.4796L144.491 50.418L144.746 50.3564L145 50.2907L145.255 50.225L145.51 50.1593L145.764 50.0854L146.019 50.0156L146.269 49.9417L146.524 49.8678L146.778 49.7856L147.033 49.7076L147.283 49.6255L147.538 49.5434L147.793 49.4572L148.047 49.3709L148.302 49.2806L148.556 49.1903L148.807 49.0958L149.061 49.0055L149.316 48.9069L149.57 48.8084L149.821 48.7099L150.08 48.6113L150.33 48.5087L150.585 48.4019L150.839 48.2993L151.094 48.1925L151.348 48.0816L151.599 47.9749L151.853 47.8599L152.108 47.7491L152.363 47.6341L152.617 47.5191L152.868 47.4041L153.122 47.2851L153.377 47.166L153.631 47.0469L153.886 46.9237L154.14 46.8005L154.646 46.5542L154.9 46.431L155.155 46.3037L155.409 46.1764L155.66 46.0492L155.914 45.9219L156.169 45.7946L156.366 45.6919L156.423 45.6632L156.678 45.5318L156.928 45.3881L157.183 45.2403L157.438 45.0883L157.692 44.9282L157.947 44.764L158.201 44.5915L158.452 44.4149L158.706 44.2343L158.961 44.0454L159.216 43.8524L159.47 43.6553L159.725 43.4582L159.979 43.294L160.234 43.0846L160.488 42.8711L160.743 42.6535L160.993 42.4358L161.248 42.2141L161.503 41.9883L161.757 41.7625L162.012 41.5325L162.266 41.3026L162.521 41.0726L162.771 40.8468L163.022 40.621L163.276 40.391L163.531 40.1488C163.617 40.0667 163.699 39.9845 163.781 39.8983C163.864 39.8121 163.954 39.73 164.036 39.6396C164.118 39.5493 164.208 39.4631 164.291 39.3727L164.545 39.0935L164.8 38.8061C164.882 38.7035 164.968 38.6049 165.054 38.5064L165.309 38.1943C165.391 38.0917 165.477 37.9849 165.559 37.874C165.641 37.7632 165.732 37.6564 165.814 37.5456L166.068 37.2007C166.155 37.0857 166.241 36.9625 166.323 36.8434C166.405 36.7243 166.491 36.5971 166.578 36.4739C166.664 36.3507 166.746 36.2193 166.828 36.092C166.91 35.9647 167.001 35.8251 167.083 35.6814C167.165 35.5377 167.255 35.4022 167.337 35.2708C167.419 35.1394 167.518 34.9875 167.6 34.8397ZM114.033 42.8834H110.53V32.528H106.835V29.432H117.728V32.528H114.033V42.8834ZM126.203 43.0969C124.216 43.0969 122.606 42.4728 121.42 41.2451C120.233 40.0174 119.637 38.3339 119.637 36.2234C119.605 35.0597 119.814 33.9018 120.253 32.8236C120.559 32.1355 120.984 31.5071 121.51 30.9677C122.013 30.4406 122.618 30.0215 123.288 29.7359C124.201 29.3677 125.178 29.1862 126.162 29.2021C127.042 29.1659 127.92 29.3125 128.74 29.6326C129.561 29.9527 130.306 30.4395 130.929 31.0621C132.12 32.2939 132.728 34.0103 132.728 36.1659C132.728 38.3216 132.132 40.0092 130.95 41.241C129.767 42.4728 128.166 43.1133 126.203 43.1133V43.0969ZM126.203 32.3391C125.801 32.3211 125.399 32.3932 125.029 32.5502C124.658 32.7072 124.327 32.9451 124.06 33.2465C123.509 33.8624 123.238 34.8356 123.238 36.1413C123.238 37.447 123.526 38.3914 124.088 39.0155C124.352 39.3175 124.679 39.5573 125.046 39.7178C125.413 39.8782 125.811 39.9553 126.211 39.9435C126.609 39.9568 127.004 39.8811 127.369 39.722C127.733 39.5628 128.057 39.3243 128.318 39.0237C128.876 38.3996 129.139 37.4101 129.139 36.0961C129.139 34.7822 128.864 33.8296 128.318 33.2219C128.05 32.9295 127.721 32.7002 127.354 32.5504C126.986 32.4006 126.591 32.334 126.195 32.3555L126.203 32.3391ZM145.649 42.8834H135.877V29.5347H139.383V39.7998H145.649V42.8834ZM20.7519 42.8834H30.0931L30.1342 42.8464L65.1874 20.9859V21.0393L65.2408 21.0927L65.29 21.1461L65.3393 21.2035L65.3886 21.2569L65.442 21.3103L65.4912 21.3637L65.5405 21.4171L65.6432 21.5279L65.6965 21.5813L65.7458 21.6347L65.7951 21.6881L65.8484 21.7455L65.8977 21.7989L65.947 21.8523L66.0004 21.9098L66.0496 21.9632L66.0989 22.0165L66.2016 22.1233L66.2508 22.1808L66.3042 22.2301L66.3535 22.2875L66.4028 22.3409L66.5054 22.4518L66.5588 22.5011L66.6081 22.5585L66.6573 22.6119L66.76 22.7228L66.8093 22.7721L66.9119 22.8829L66.9612 22.9363L67.0146 22.9938L67.0638 23.0472L67.1665 23.1539L67.2158 23.2073L67.3184 23.3182L67.3677 23.3715L67.4703 23.4783L67.5196 23.5358L67.573 23.585L67.6223 23.6425L67.6715 23.6959L67.7742 23.8068L67.8276 23.8602L67.8768 23.9135L67.9261 23.9669L68.0288 24.0778L68.078 24.1312L68.1314 24.1845L68.1807 24.2379L68.2299 24.2913L68.2833 24.3488L68.3326 24.4022L68.386 24.4555L68.4352 24.5089L68.4845 24.5623L68.5872 24.6731L68.6365 24.7265L68.6898 24.7799L68.7391 24.8374L68.7884 24.8908L68.8418 24.9441L68.891 24.9975L68.9444 25.0509L68.9937 25.1043L69.0429 25.1618L69.0963 25.2151L69.1456 25.2685L69.1949 25.3219L69.2975 25.4328L69.3468 25.4861L69.4002 25.5395L69.4494 25.5929L69.5028 25.6463L69.6055 25.7571L69.6547 25.8105L69.704 25.8639L69.7533 25.9214L69.8559 26.0281L69.9052 26.0815L69.9586 26.139L70.0079 26.1924L70.0571 26.2458L70.1598 26.3525L70.2132 26.41L70.2624 26.4593L70.3117 26.5168L70.3651 26.5701L70.4144 26.6235L70.4636 26.6769L70.5663 26.7878L70.6155 26.8411L70.7182 26.952L70.7675 27.0054L70.8208 27.0588L70.8701 27.1121L70.9728 27.223L71.022 27.2764L71.1247 27.3831L71.174 27.4365L71.2274 27.494L71.2766 27.5474L71.3259 27.6007L71.4285 27.7116L71.4778 27.765L71.5312 27.8184L71.5805 27.8717L71.6339 27.9251L71.6831 27.9785L71.7324 28.036L71.7858 28.0894L71.835 28.1427L71.8843 28.1961L71.987 28.307L72.0362 28.3604L72.0896 28.4137L72.1389 28.4671L72.2415 28.578L72.2908 28.6314L72.3442 28.6847L72.3935 28.7381L72.4427 28.7956L72.5454 28.9024L72.5947 28.9557L72.6973 29.0666L72.7466 29.12L72.8 29.1734L72.8492 29.2267L72.9519 29.3335L73.0012 29.391L73.0545 29.4444L73.1038 29.4977L73.1531 29.5511L73.2557 29.662L73.305 29.7154L73.3584 29.7687L73.4077 29.8221L73.5103 29.933L73.5596 29.9864L73.613 30.0397L73.6622 30.0931L73.7115 30.1506L73.8141 30.2574L73.8634 30.3107L73.9168 30.3641L73.9661 30.4216L74.0194 30.475L74.0687 30.5284L74.118 30.5858L74.1714 30.6351L74.2207 30.6926L74.2699 30.746L74.3726 30.8527L74.4218 30.9061L74.5245 31.017L74.5738 31.0703H74.5943L81.0613 38.0506H80.9012L80.3592 37.9972L79.8172 37.9479L79.2793 37.9028L78.7373 37.8576L78.1994 37.8124L77.6574 37.7714L77.1195 37.7303L76.5775 37.6934L76.0355 37.6605L75.4976 37.6277L74.9556 37.5989L74.4177 37.5702L73.8757 37.5415L73.342 37.5456L72.8041 37.525H72.2621L71.7242 37.5045H71.1822H70.6443H70.1023H69.5603H66.8585H66.3206H65.7786H65.2408H64.6988H64.4072H64.1568H63.6189L63.0769 37.525H62.539L61.997 37.5497L61.4591 37.5743L60.9171 37.603L60.3751 37.6359L59.8372 37.6687L59.2952 37.7016L58.7573 37.7426L58.2153 37.7796L57.6733 37.8248L57.1354 37.8699L56.5934 37.9192L56.0556 37.9685L55.5136 38.0219L54.9757 38.0793L54.4337 38.1368L53.8917 38.1984C53.7151 38.1984 53.5304 38.2354 53.3538 38.26L52.8118 38.3257L52.2739 38.3914L51.7319 38.4612L51.194 38.5351L50.652 38.609L50.11 38.687L49.5721 38.765L49.0301 38.8513L48.4923 38.9334L47.9503 39.0196L47.4083 39.11L46.8704 39.2044L46.3284 39.2988L45.7987 39.3933L45.2567 39.4959L44.7188 39.6027L44.1768 39.7135L43.6348 39.8285L43.0969 39.9435L42.5549 40.0584L42.0129 40.1775L41.475 40.3007L40.9371 40.428L40.3952 40.5553L39.8532 40.6867L39.3153 40.8222L38.7733 40.9618L38.2313 41.1055L37.6934 41.2533L37.1514 41.4052L36.8886 41.4832L36.6135 41.5613L36.0715 41.7214L35.5336 41.8856L34.9916 42.0499L34.4496 42.2223L33.9117 42.3948L33.3697 42.5754L32.8318 42.7561L32.2898 42.9491C32.1092 43.0148 31.9285 43.0764 31.7479 43.1462L31.21 43.3474L30.668 43.5568L30.1301 43.7744L29.5881 43.9961L29.0502 44.2302L28.5082 44.4765L29.0502 44.3328L29.5881 44.1973L30.1301 44.0618L30.668 43.9387L31.21 43.8155L31.7479 43.6964L32.2898 43.5814L32.8318 43.4706H32.9057L33.3697 43.3761L33.9117 43.2694L34.4496 43.1626L34.9916 43.06L35.5336 42.9655L36.0715 42.867L36.6135 42.7766L37.1514 42.6863L37.3608 42.6535L37.6934 42.6001L38.2313 42.518L38.7733 42.4317L39.3153 42.3496L39.8532 42.2716L40.3952 42.1936L40.9371 42.1197L41.475 42.0458L42.0129 41.976L42.5549 41.9103L43.0969 41.8446L43.6348 41.783L44.1768 41.7214L44.7188 41.6639L45.2567 41.6105L45.7987 41.5572L46.3366 41.5079L46.8663 41.4545L47.4041 41.4052L47.9461 41.3601L48.4881 41.3149L49.026 41.2697L49.568 41.2287L50.1059 41.1917L50.6479 41.1548L51.1899 41.1219L51.7278 41.0891L52.2698 41.0562L52.8077 41.0316L53.3497 41.0069L53.8876 40.9823L54.4296 40.9618H54.9716H55.5095H56.0515H56.5894H57.1313H57.6692H58.2112H62.5349H63.0728H63.6148H64.1527H64.4072H64.6947H65.2367H65.7745L66.3165 40.9823H66.8544L67.3964 41.0069L67.9343 41.0316L68.4763 41.0603L69.0183 41.0891L69.5562 41.1219L70.0982 41.1548L70.6402 41.1876L71.1781 41.2246L71.7201 41.2656L72.258 41.3067L72.8 41.3477L73.3378 41.3929L73.8798 41.4381L74.4218 41.4874L74.9597 41.5366L75.5017 41.5859L76.0396 41.6434L76.5816 41.6968L77.1236 41.7542L77.6615 41.8117C77.8422 41.8323 78.0228 41.8569 78.2035 41.8733L78.7414 41.939L79.2834 42.0047L79.8213 42.0704L80.3633 42.1402L80.9053 42.21L81.4432 42.2839L81.9852 42.3578L82.2808 42.3989L82.523 42.4358L83.065 42.5139L83.6029 42.596L84.1449 42.6781L84.6869 42.7602L85.2248 42.8464L85.7668 42.9327L86.3047 43.0189L86.8467 43.1092L87.3887 43.2037L87.9266 43.2981L88.4686 43.3967L89.0106 43.4911L89.5485 43.5937L90.0864 43.6964L90.6284 43.8032L91.039 43.8853L91.1662 43.9099L91.7041 44.0208L92.2461 44.1316L92.784 44.2384L93.326 44.3534L93.8639 44.4683L94.4059 44.5833L94.9479 44.7024L95.379 44.8009L95.4858 44.8256L96.0278 44.9446L96.5698 45.0637L97.1077 45.1828L97.6497 45.3019L98.1876 45.4168L98.7296 45.5359L99.2716 45.6468L99.8094 45.7617H99.8423L100.351 45.8685L100.889 45.9752L101.431 46.0861L101.969 46.1929L102.511 46.2996L103.049 46.4023L103.591 46.509L104.133 46.6117L104.671 46.7102L105.213 46.8129L105.751 46.9114L106.293 47.01L106.835 47.1044L107.373 47.1988L107.915 47.2933L108.457 47.3836L108.995 47.4739L109.537 47.5643L110.075 47.6505L110.617 47.7367L111.154 47.823L111.696 47.9051L112.234 47.9831L112.776 48.0652L113.314 48.1432L113.856 48.2171L114.398 48.291L114.936 48.365L115.478 48.4348L116.016 48.5046L116.558 48.5744L117.1 48.6401L117.638 48.7016L118.139 48.7591H118.18L118.722 48.8166C118.898 48.8413 119.079 48.8577 119.26 48.8782L119.802 48.9316L120.34 48.985L120.882 49.0383L121.42 49.0876L121.961 49.1328L122.503 49.1779L123.041 49.2231L123.579 49.2642L124.121 49.3011L124.663 49.3381L125.201 49.3709L125.743 49.4038L126.285 49.4325L126.823 49.4572L127.365 49.4818H127.903H128.445H128.987H129.525H130.067H132.227H132.769H133.306H133.848H134.386H134.928L135.466 49.4572L136.008 49.4325L136.55 49.3997L137.088 49.3668L137.618 49.3299L138.156 49.2847L138.698 49.2395L139.24 49.1862L139.778 49.1328L140.32 49.0712L140.857 49.0096L141.399 48.9398L141.937 48.8659L142.479 48.7838L143.021 48.7016L143.559 48.6113L144.101 48.5169L144.643 48.4142L145.181 48.3075L145.719 48.1925L146.261 48.0734L146.561 48.0036L146.803 47.942L147.341 47.8106L147.883 47.671L148.425 47.5232L148.963 47.3672L149.505 47.2029L150.043 47.0346L150.585 46.858L151.123 46.6692C151.307 46.6035 151.484 46.5419 151.665 46.4721L152.207 46.2709L152.744 46.0574L153.286 45.8315L153.824 45.5975L154.366 45.3511L154.908 45.0965L155.29 44.9077L155.446 44.8256L155.988 44.534C156.169 44.4355 156.35 44.3369 156.526 44.2343C156.703 44.1316 156.887 44.0249 157.068 43.9181L157.606 43.5896C157.791 43.4747 157.971 43.3597 158.148 43.2406C158.325 43.1215 158.509 43.0025 158.69 42.8834L159.228 42.5015C159.413 42.3701 159.593 42.2388 159.77 42.0909C159.946 41.9431 160.131 41.8158 160.312 41.6803L160.85 41.2369C161.035 41.0809 161.211 40.9248 161.388 40.7688C161.564 40.6128 161.753 40.4403 161.93 40.272L162.192 40.0174L162.472 39.7464L163.01 39.188C163.196 38.9909 163.376 38.7938 163.551 38.5967C163.736 38.3873 163.917 38.1861 164.089 37.9644C164.262 37.7426 164.455 37.5168 164.631 37.291C164.808 37.0652 164.997 36.8106 165.173 36.5642C165.35 36.3179 165.539 36.0469 165.711 35.7841C165.884 35.5213 166.081 35.2215 166.253 34.9382C166.426 34.6549 166.619 34.3182 166.791 34.0062C166.615 34.1991 166.434 34.388 166.253 34.581C166.073 34.774 165.896 34.9505 165.711 35.1353C165.527 35.3201 165.354 35.4925 165.173 35.6691L164.631 36.1906C164.455 36.3589 164.274 36.5232 164.093 36.6874C163.913 36.8516 163.732 37.0118 163.551 37.1678L163.01 37.6318L162.472 38.0752L161.93 38.4858C161.753 38.6213 161.572 38.7568 161.388 38.8964C161.203 39.036 161.108 39.1017 160.977 39.2044L160.862 39.2865L160.324 39.652L159.782 40.0133L159.24 40.3582L158.702 40.6867L158.398 40.8673V39.7546H152.129V29.4895H148.622V42.8834H154.338L153.837 43.0805H153.8L153.299 43.2694L152.757 43.4665L152.219 43.6553L151.677 43.8319L151.135 43.9961L150.597 44.1563L150.055 44.3041L149.517 44.4437L148.975 44.5751L148.437 44.7024L147.895 44.8173L147.353 44.9282L146.815 45.0309L146.273 45.1294L145.735 45.2197L145.198 45.347L144.66 45.425L144.118 45.4948L143.576 45.5605L143.038 45.6221L142.496 45.6796L141.954 45.7289L141.416 45.774L140.874 45.8151L140.336 45.8521L139.794 45.8849L139.256 45.9095L138.714 45.9342H138.176H137.634H137.092H134.932H134.395C134.21 45.9342 134.033 45.9342 133.853 45.9342H133.311H132.773H132.231L131.689 45.9095L131.151 45.8849L130.609 45.8562L130.071 45.8274L129.529 45.7946L128.991 45.7576L128.449 45.7207L127.907 45.6796L127.369 45.6385L126.827 45.5893L126.289 45.54C126.109 45.54 125.928 45.5236 125.747 45.4907L125.205 45.4374L124.667 45.347L124.125 45.2936L123.583 45.232L123.025 45.1828L122.487 45.1212L121.945 45.0555L121.403 44.9898L120.865 44.92L120.323 44.8502L119.785 44.7804L119.243 44.7065L119.059 44.6818L118.705 44.6326L118.163 44.5546L117.621 44.4765L117.084 44.3985L116.542 44.3205L116.004 44.2384L115.462 44.1522L114.92 44.07L114.382 43.9838L113.84 43.8935L113.298 43.8073L112.76 43.7046L112.222 43.6143L111.68 43.5157L111.138 43.4213L110.6 43.3269L110.218 43.257L110.058 43.2283L109.52 43.1339L108.978 43.0353L108.44 42.9368L107.898 42.8341L107.356 42.7356L106.818 42.6329L106.601 42.5919L67.2691 0L20.7519 42.8834ZM25.3014 57.2545C26.8178 57.1855 28.3017 57.7081 29.4403 58.7122C29.9586 59.1941 30.3669 59.7821 30.6376 60.4361C30.9083 61.0901 31.0349 61.7947 31.0088 62.502C31.0398 63.2037 30.9182 63.9037 30.6524 64.5537C30.3866 65.2038 29.9828 65.7884 29.469 66.2673C28.4425 67.2089 27.0533 67.6797 25.3014 67.6797H20.6657V57.2545H25.3014ZM25.326 58.7573H22.2917V66.1769H25.326C26.3961 66.2367 27.448 65.8807 28.2618 65.1833C28.9537 64.4541 29.3363 63.4853 29.3294 62.4802C29.3225 61.4751 28.9267 60.5117 28.2249 59.792C27.4357 59.0842 26.4018 58.7116 25.3424 58.7532L25.326 58.7573ZM33.5997 67.6797V57.2545H43.45V58.782H35.2626V61.3605H40.6374V62.8633H35.2626V66.1482H43.9058V67.651L33.5997 67.6797ZM50.7998 67.6797H49.954L44.7024 57.2545H46.4474L50.3892 65.056L54.2694 57.2545H56.072L50.7998 67.6797ZM58.0963 67.6797V57.2545H67.9261V58.782H59.7551V61.3605H65.1299V62.8633H59.751V66.1482H68.3737V67.651L58.0963 67.6797ZM70.7182 67.6797V57.2545H72.3606V66.1769H80.1621V67.6797H70.7182ZM87.0807 68.0082C85.4037 68.0739 83.7624 67.5117 82.4779 66.4315C81.9123 65.9404 81.4588 65.3337 81.148 64.6522C80.8372 63.9707 80.6763 63.2305 80.6763 62.4815C80.6763 61.7325 80.8372 60.9922 81.148 60.3108C81.4588 59.6293 81.9123 59.0225 82.4779 58.5315C83.7695 57.4603 85.4124 56.9058 87.089 56.9753C88.7718 56.9052 90.4216 57.4561 91.7247 58.5233C92.2906 59.0158 92.7443 59.6241 93.0553 60.3069C93.3662 60.9897 93.5271 61.7312 93.5271 62.4815C93.5271 63.2318 93.3662 63.9733 93.0553 64.6561C92.7443 65.3389 92.2906 65.9471 91.7247 66.4397C90.4298 67.5174 88.7804 68.075 87.0972 68.0041L87.0807 68.0082ZM87.0807 66.4808C88.3219 66.5359 89.5402 66.1341 90.5052 65.3516C90.9229 64.9982 91.2585 64.5579 91.4887 64.0615C91.7189 63.5651 91.8382 63.0246 91.8382 62.4774C91.8382 61.9302 91.7189 61.3896 91.4887 60.8932C91.2585 60.3969 90.9229 59.9566 90.5052 59.6032C89.5188 58.8677 88.3214 58.4704 87.091 58.4704C85.8606 58.4704 84.6632 58.8677 83.6768 59.6032C83.2635 59.9593 82.9318 60.4005 82.7044 60.8965C82.4771 61.3925 82.3594 61.9317 82.3594 62.4774C82.3594 63.023 82.4771 63.5623 82.7044 64.0583C82.9318 64.5543 83.2635 64.9954 83.6768 65.3516C84.6396 66.1348 85.8575 66.5354 87.0972 66.4767L87.0807 66.4808ZM97.8468 63.1261V67.6797H96.2043V57.2545H103.833C104.738 57.2002 105.632 57.4711 106.354 58.0182C106.658 58.2834 106.896 58.6143 107.052 58.9858C107.208 59.3573 107.277 59.7594 107.254 60.1616C107.267 60.5605 107.194 60.9577 107.04 61.3261C106.887 61.6945 106.656 62.0255 106.363 62.2967C105.711 62.864 104.865 63.1581 104.002 63.1179L97.8468 63.1261ZM97.8468 61.5987H103.829C104.286 61.6276 104.738 61.4985 105.11 61.2333C105.249 61.0975 105.36 60.9353 105.435 60.7562C105.511 60.5771 105.55 60.3847 105.55 60.1903C105.55 59.996 105.511 59.8036 105.435 59.6245C105.36 59.4454 105.249 59.2832 105.11 59.1474C104.758 58.8805 104.32 58.7506 103.879 58.782H97.8632L97.8468 61.5987ZM109.561 67.6797V57.2545H110.924L115.223 63.352L119.535 57.2545H120.898V67.6797H119.256V60.178L115.223 65.9757L111.208 60.178V67.6756L109.561 67.6797ZM124.466 67.6797V57.2545H134.321V58.782H126.109V61.3605H131.487V62.8633H126.109V66.1482H134.768V67.651L124.466 67.6797ZM137.109 67.6797V57.2545H137.971L144.639 64.5756V57.2545H146.245V67.6797H145.403L138.747 60.3751V67.6756L137.109 67.6797ZM152.301 67.6797V58.7039H147.92V57.2545H158.403V58.708H153.972V67.6797H152.301ZM-0.0328369 61.6685L14.3136 48.5292H21.1871L-0.0328369 61.6685Z" fill="#BFAF8E"/>
</g>
<defs>
<clipPath id="clip0_221_1154">
<rect width="167.855" height="68" fill="white"/>
</clipPath>
</defs>
</svg>
