<svg width="0" height="0" class="hidden">
  <symbol xmlns="http://www.w3.org/2000/svg" viewBox="0 0 10 6" id="ic_arr_ver">
    <path id="Vector 9" d="M1 1L5 5L9 1" stroke="currentColor" fill="none"></path>
  </symbol>
  <symbol xmlns="http://www.w3.org/2000/svg" viewBox="0 0 30 15" id="ic_arrow_hor">
    <path d="M28.5 7.5H0.5M28.5 7.5L21.5 0.5M28.5 7.5L21.5 14.5" stroke="currentColor" fill="none"></path>
  </symbol>
  <symbol xmlns="http://www.w3.org/2000/svg" viewBox="0 0 16 11" id="ic_arrow_hor2">
    <path d="M16 5.5L1 5.5M1 5.5L5.5 10M1 5.5L5.5 1" stroke="currentColor" fill="none"></path>
  </symbol>
  <symbol xmlns="http://www.w3.org/2000/svg" viewBox="0 0 15 11" id="ic_check">
    <path d="M1 5L5.5 9.5L14 1" stroke="currentColor" fill="none"></path>
  </symbol>
  <symbol fill="none" xmlns="http://www.w3.org/2000/svg" viewBox="0 0 29 29" id="ic_close">
    <path id="Vector 168" d="M28 1L14.5 14.5M1 28L14.5 14.5M14.5 14.5L1 1L28 28" stroke="currentColor" fill="none"></path>
  </symbol>
  <symbol xmlns="http://www.w3.org/2000/svg" viewBox="0 0 31 30" id="ic_fb">
    <path d="M15.1534 0.5H15.1534C13.2492 0.49985 11.3636 0.874777 9.60435 1.60337C7.84507 2.33197 6.24653 3.39996 4.90002 4.74637C3.5535 6.09278 2.48538 7.69124 1.75665 9.45046C1.02791 11.2097 0.652832 13.0952 0.652832 14.9994V15.0076C0.652832 15.0077 0.652832 15.0077 0.652832 15.0077C0.653145 18.8512 2.18011 22.5372 4.89788 25.255C7.61565 27.9727 11.3016 29.4997 15.1451 29.5L15.1534 0.5ZM15.1534 0.5C18.9989 0.5 22.6869 2.02761 25.4061 4.74678C28.1252 7.46595 29.6528 11.1539 29.6528 14.9994V15.0076C29.6528 15.0077 29.6528 15.0077 29.6528 15.0077C29.6525 18.8512 28.1256 22.5372 25.4078 25.255C22.69 27.9727 19.004 29.4997 15.1605 29.5C15.1605 29.5 15.1605 29.5 15.1605 29.5M15.1534 0.5L15.1605 29.5M15.1605 29.5H15.1452H15.1605Z" stroke="currentColor" fill="none"></path>
    <path d="M16.5639 24.5202V16.2053H19.3552L19.7726 12.9659H16.5639V10.897C16.5639 9.95942 16.824 9.31981 18.1694 9.31981H19.8861V6.4209C19.0555 6.33312 18.2208 6.2905 17.3856 6.29321C14.9111 6.29321 13.2169 7.80297 13.2169 10.5766V12.9659H10.4197V16.2053H13.2169V24.5202H16.5639Z" fill="currentColor"></path>
  </symbol>
  <symbol xmlns="http://www.w3.org/2000/svg" viewBox="0 0 32 32" id="ic_instagram">
    <path d="M15.7153 31H15.7306C19.7067 30.9997 23.5199 29.42 26.3314 26.6085C29.143 23.797 30.7226 19.9838 30.7229 16.0077V15.9994C30.7229 14.0297 30.335 12.0792 29.5812 10.2594C28.8274 8.43957 27.7225 6.78605 26.3297 5.39323C24.9369 4.0004 23.2834 2.89555 21.4636 2.14176C19.6437 1.38797 17.6933 1 15.7235 1V1C11.7454 1 7.93027 2.58029 5.11734 5.39323C2.3044 8.20616 0.724121 12.0213 0.724121 15.9994V16.0077C0.724435 19.9836 2.30391 23.7966 5.11519 26.6081C7.92647 29.4196 11.7394 30.9994 15.7153 31V31Z" stroke="currentColor" stroke-miterlimit="10" fill="none"></path>
    <path d="M15.7223 9.69442C17.7771 9.69442 18.0194 9.70151 18.8317 9.73934C19.3193 9.74537 19.8024 9.83494 20.2598 10.0042C20.5916 10.1317 20.8929 10.3274 21.1442 10.5787C21.3955 10.83 21.5913 11.1313 21.7187 11.4631C21.888 11.9205 21.9775 12.4036 21.9836 12.8913C22.0214 13.7035 22.0285 13.9458 22.0285 15.9994C22.0285 18.053 22.0214 18.2966 21.9836 19.1088C21.9775 19.5965 21.888 20.0795 21.7187 20.537C21.5913 20.8687 21.3955 21.17 21.1442 21.4214C20.8929 21.6727 20.5916 21.8684 20.2598 21.9959C19.8024 22.1651 19.3193 22.2547 18.8317 22.2607C18.0206 22.2986 17.7771 22.3056 15.7223 22.3056C13.6675 22.3056 13.4251 22.2986 12.6141 22.2607C12.1264 22.2547 11.6434 22.1651 11.1859 21.9959C10.8542 21.8684 10.5529 21.6727 10.3016 21.4214C10.0502 21.17 9.85451 20.8687 9.72702 20.537C9.55779 20.0795 9.46822 19.5965 9.4622 19.1088C9.42436 18.2966 9.41727 18.0542 9.41727 15.9994C9.41727 13.9447 9.42436 13.7035 9.4622 12.8913C9.46822 12.4036 9.55779 11.9205 9.72702 11.4631C9.85451 11.1313 10.0502 10.83 10.3016 10.5787C10.5529 10.3274 10.8542 10.1317 11.1859 10.0042C11.6434 9.83494 12.1264 9.74537 12.6141 9.73934C13.4263 9.70151 13.6687 9.69442 15.7223 9.69442ZM15.7223 8.30762C13.6344 8.30762 13.372 8.31708 12.5515 8.35491C11.9136 8.36644 11.2823 8.48638 10.6847 8.70959C10.1744 8.9068 9.71094 9.2085 9.3241 9.59533C8.93726 9.98217 8.63556 10.4456 8.43835 10.9559C8.21514 11.5536 8.0952 12.1848 8.08367 12.8227C8.04584 13.6432 8.03638 13.9056 8.03638 15.9935C8.03638 18.0814 8.04584 18.3451 8.08367 19.1655C8.0952 19.8034 8.21514 20.4347 8.43835 21.0323C8.63556 21.5426 8.93726 22.0061 9.3241 22.3929C9.71094 22.7797 10.1744 23.0814 10.6847 23.2787C11.2823 23.5019 11.9136 23.6218 12.5515 23.6333C13.372 23.6712 13.6344 23.6806 15.7223 23.6806C17.8102 23.6806 18.0738 23.6712 18.8943 23.6333C19.5322 23.6218 20.1634 23.5019 20.7611 23.2787C21.2714 23.0814 21.7348 22.7797 22.1217 22.3929C22.5085 22.0061 22.8102 21.5426 23.0074 21.0323C23.2306 20.4347 23.3506 19.8034 23.3621 19.1655C23.3999 18.3451 23.4094 18.0826 23.4094 15.9935C23.4094 13.9045 23.3999 13.6432 23.3621 12.8227C23.3506 12.1848 23.2306 11.5536 23.0074 10.9559C22.8102 10.4456 22.5085 9.98217 22.1217 9.59533C21.7348 9.2085 21.2714 8.9068 20.7611 8.70959C20.1634 8.48638 19.5322 8.36644 18.8943 8.35491C18.0738 8.31708 17.8114 8.30762 15.7223 8.30762Z" fill="currentColor"></path>
    <path d="M15.7222 12.0507C14.9409 12.0507 14.1772 12.2823 13.5276 12.7164C12.878 13.1505 12.3717 13.7675 12.0728 14.4893C11.7739 15.2111 11.6957 16.0054 11.8482 16.7716C12.0007 17.5379 12.377 18.2417 12.9296 18.7941C13.4821 19.3464 14.186 19.7225 14.9523 19.8748C15.7186 20.0271 16.5128 19.9487 17.2346 19.6495C17.9563 19.3504 18.5731 18.8439 19.007 18.1942C19.4409 17.5445 19.6724 16.7807 19.6721 15.9994C19.6721 15.4808 19.5699 14.9672 19.3714 14.488C19.1729 14.0089 18.8819 13.5735 18.5151 13.2068C18.1483 12.8401 17.7129 12.5493 17.2337 12.3509C16.7544 12.1525 16.2408 12.0505 15.7222 12.0507ZM15.7222 18.5638C15.215 18.5638 14.7192 18.4134 14.2975 18.1316C13.8758 17.8498 13.5471 17.4493 13.353 16.9808C13.1589 16.5122 13.1082 15.9966 13.2071 15.4992C13.3061 15.0017 13.5503 14.5448 13.9089 14.1862C14.2675 13.8275 14.7245 13.5833 15.2219 13.4844C15.7193 13.3854 16.2349 13.4362 16.7035 13.6303C17.1721 13.8244 17.5726 14.1531 17.8543 14.5748C18.1361 14.9965 18.2865 15.4922 18.2865 15.9994C18.2865 16.6795 18.0163 17.3318 17.5354 17.8127C17.0545 18.2936 16.4023 18.5638 15.7222 18.5638Z" fill="currentColor"></path>
    <path d="M19.8284 12.8179C20.3383 12.8179 20.7517 12.4045 20.7517 11.8945C20.7517 11.3846 20.3383 10.9712 19.8284 10.9712C19.3184 10.9712 18.905 11.3846 18.905 11.8945C18.905 12.4045 19.3184 12.8179 19.8284 12.8179Z" fill="currentColor"></path>
  </symbol>
  <symbol xmlns="http://www.w3.org/2000/svg" viewBox="0 0 21 21" id="ic_telegram">
    <path d="M10.501 1C7.98135 1.0002 5.56499 2.00125 3.78342 3.78297C2.00184 5.56468 1.00098 7.98112 1.00098 10.5007C1.00058 11.748 1.2459 12.9831 1.72291 14.1356C2.19991 15.288 2.89928 16.3352 3.78105 17.2173C4.66281 18.0994 5.70971 18.7992 6.86196 19.2766C8.01421 19.7541 9.24923 19.9999 10.4965 20H10.5062C13.0245 19.9998 15.4396 18.9993 17.2203 17.2186C19.001 15.4379 20.0015 13.0228 20.0017 10.5045V10.5045C20.0022 9.25652 19.7568 8.02068 19.2796 6.86756C18.8024 5.71445 18.1026 4.66665 17.2203 3.78403C16.3381 2.9014 15.2906 2.20125 14.1376 1.72356C12.9847 1.24587 11.7489 1 10.501 1V1Z" stroke="currentColor" stroke-width="0.599038" stroke-miterlimit="10" fill="none"></path>
    <path d="M14.4739 6.60928L5.4531 10.026C4.95964 10.1683 4.97537 10.6558 5.34003 10.7748L7.6014 11.4802L8.46626 14.1332C8.57184 14.423 8.65721 14.5323 8.83692 14.5353C9.01663 14.5383 9.09825 14.4687 9.29443 14.2949C9.52357 14.08 9.87325 13.7408 10.4259 13.2032L12.7771 14.9411C13.2099 15.18 13.5259 15.0565 13.6307 14.539L15.1051 7.24576C15.2624 6.61078 14.888 6.42133 14.4739 6.60928ZM7.95334 11.314L13.0908 8.09415C13.3447 7.92417 13.4241 8.11361 13.3095 8.24391L9.04134 12.0815L8.82194 13.9969L7.95334 11.314Z" fill="currentColor"></path>
  </symbol>
  <symbol xmlns="http://www.w3.org/2000/svg" viewBox="0 0 21 24" id="ic_video_play">
    <path d="M20.0833 10.6047C21.1574 11.2249 21.1574 12.7751 20.0833 13.3953L3.16667 23.1621C2.09259 23.7822 0.75 23.0071 0.75 21.7668V2.23316C0.75 0.992924 2.09259 0.217778 3.16667 0.837895L20.0833 10.6047Z" fill="currentColor"></path>
  </symbol>
  <symbol xmlns="http://www.w3.org/2000/svg" viewBox="0 0 21 21" id="ic_whatsapp">
    <path d="M10.5 1C7.98037 1.0002 5.56401 2.00125 3.78244 3.78297C2.00087 5.56468 1 7.98112 1 10.5007V10.5007C0.999607 11.748 1.24492 12.9831 1.72193 14.1356C2.19894 15.288 2.8983 16.3352 3.78006 17.2173C4.66183 18.0994 5.70874 18.7992 6.86099 19.2766C8.01323 19.7541 9.24825 19.9999 10.4955 20H10.5052C13.0235 19.9998 15.4386 18.9993 17.2194 17.2186C19.0001 15.4379 20.0005 13.0228 20.0007 10.5045C20.0012 9.25652 19.7559 8.02068 19.2786 6.86756C18.8014 5.71445 18.1016 4.66665 17.2194 3.78403C16.3371 2.9014 15.2896 2.20125 14.1366 1.72356C12.9837 1.24587 11.748 1 10.5 1V1Z" stroke="currentColor" stroke-width="0.599038" stroke-miterlimit="10" fill="none"></path>
    <path fill-rule="evenodd" clip-rule="evenodd" d="M10.5874 5.63507C9.7483 5.63544 8.92432 5.8586 8.1997 6.28175C7.47508 6.7049 6.87581 7.31285 6.46312 8.04348C6.05044 8.77411 5.83915 9.60122 5.85085 10.4403C5.86254 11.2793 6.0968 12.1002 6.52969 12.819L5.67456 15.3649L8.29535 14.5255C8.9283 14.8749 9.63279 15.0749 10.3549 15.11C11.077 15.1451 11.7976 15.0146 12.4615 14.7283C13.1254 14.442 13.7149 14.0077 14.1851 13.4584C14.6552 12.9092 14.9934 12.2596 15.1738 11.5595C15.3542 10.8594 15.372 10.1273 15.2258 9.41928C15.0797 8.71124 14.7734 8.04602 14.3305 7.47458C13.8877 6.90314 13.3199 6.44061 12.6707 6.12242C12.0215 5.80423 11.3081 5.6388 10.5852 5.63881L10.5874 5.63507ZM10.5874 14.3166C9.81521 14.3181 9.05976 14.0915 8.41591 13.6652L6.90034 14.1496L7.3923 12.6857C6.87306 11.9685 6.61034 11.0974 6.64646 10.2126C6.68258 9.32788 7.01543 8.48106 7.59141 7.80852C8.16739 7.13598 8.95297 6.67688 9.82163 6.50516C10.6903 6.33343 11.5915 6.45908 12.38 6.86187C13.1686 7.26465 13.7986 7.92113 14.1687 8.72557C14.5387 9.53001 14.6272 10.4356 14.42 11.2965C14.2127 12.1573 13.7217 12.9234 13.0261 13.4713C12.3304 14.0191 11.4706 14.3169 10.5852 14.3166H10.5874ZM12.8091 11.4495C12.69 11.3843 12.1067 11.0698 11.9974 11.0249C11.8881 10.98 11.808 10.9575 11.7234 11.0758C11.6387 11.1941 11.3961 11.457 11.3227 11.5348C11.2494 11.6127 11.1782 11.6202 11.0592 11.5551C10.7077 11.4 10.3861 11.1846 10.1089 10.9186C9.85361 10.6645 9.63758 10.3738 9.46797 10.056C9.40133 9.93242 9.46797 9.86952 9.53012 9.81186C9.59227 9.7542 9.65667 9.67483 9.71957 9.60669C9.7717 9.54742 9.81485 9.48082 9.84761 9.40901C9.86505 9.37642 9.87417 9.34002 9.87417 9.30306C9.87417 9.26609 9.86505 9.22969 9.84761 9.1971C9.81916 9.1357 9.59976 8.53142 9.50766 8.28582C9.41556 8.04021 9.31447 8.07615 9.24333 8.07315C9.1722 8.07016 9.09357 8.05818 9.01195 8.05518C8.95066 8.05421 8.88984 8.06603 8.83337 8.08988C8.7769 8.11373 8.72602 8.14909 8.68398 8.19371C8.54238 8.31812 8.42824 8.47066 8.34882 8.64161C8.26941 8.81255 8.22646 8.99816 8.22272 9.18661C8.201 9.78565 8.6121 10.3727 8.672 10.4596C8.7319 10.5464 9.45824 11.8321 10.669 12.363C11.8799 12.8939 11.8873 12.7314 12.109 12.7194C12.3306 12.7075 12.8361 12.4536 12.9469 12.1751C13.0577 11.8965 13.0674 11.6509 13.039 11.603C13.0105 11.5551 12.9274 11.5146 12.8091 11.4495Z" fill="currentColor"></path>
  </symbol>
  <symbol xmlns="http://www.w3.org/2000/svg" viewBox="0 0 30 30" id="ic_youtube">
    <path d="M15.0065 29.5C15.0065 29.5 15.0065 29.5 15.0065 29.5C18.8502 29.4997 22.5364 27.9726 25.2542 25.2545C27.972 22.5365 29.4988 18.8502 29.4988 15.0065V14.9994C29.4988 11.1539 27.9712 7.46594 25.252 4.74678C22.5329 2.02761 18.8449 0.5 14.9994 0.5C11.1539 0.5 7.46594 2.02761 4.74677 4.74678C2.02761 7.46594 0.5 11.1539 0.5 14.9994V15.0065C0.5 18.85 2.02668 22.5362 4.74425 25.2541C7.46179 27.9721 11.1476 29.4994 14.9911 29.5H15.0065ZM15.0065 29.5H14.9912H15.0065Z" stroke="currentColor" fill="none"></path>
    <path d="M19.2662 17.6464C18.9935 17.6464 18.8567 17.8548 18.856 18.2718V18.6903H19.6741V18.2765C19.6741 17.8544 19.5369 17.6464 19.2662 17.6464Z" fill="currentColor"></path>
    <path d="M21.2654 15.3516C21.1896 15.0055 21.0082 14.6915 20.7462 14.4531C20.4842 14.2146 20.1546 14.0634 19.8029 14.0204C18.1241 13.8336 16.4264 13.8324 14.7346 13.8336C13.0428 13.8348 11.345 13.8336 9.6662 14.0204C9.3147 14.0633 8.9852 14.2143 8.72323 14.4526C8.46126 14.6908 8.27974 15.0046 8.20374 15.3504C7.96729 16.3755 7.96729 17.4939 7.96729 18.5496C7.96729 19.6054 7.96729 20.7238 8.20374 21.7489C8.27938 22.0946 8.46046 22.4083 8.72199 22.6468C8.98352 22.8852 9.3126 23.0366 9.66383 23.0801C11.3427 23.2681 13.0404 23.2681 14.7322 23.2681C16.424 23.2681 18.1218 23.2681 19.8006 23.0801C20.1521 23.0372 20.4816 22.8861 20.7436 22.6479C21.0055 22.4096 21.187 22.0959 21.263 21.75C21.4995 20.725 21.4995 19.6066 21.4995 18.5508C21.4995 17.4951 21.5019 16.3766 21.2654 15.3516ZM11.8262 16.2738H10.8461V21.4758H9.93694V16.2738H8.97458V15.4214H11.8262V16.2738ZM14.2971 21.4758H13.479V20.9827C13.1539 21.3563 12.8453 21.5372 12.5438 21.5372C12.2802 21.5372 12.0993 21.4308 12.0177 21.2015C11.9607 20.9828 11.9364 20.7569 11.9456 20.5311V16.9654H12.7625V20.2864C12.7579 20.3925 12.7607 20.4987 12.7708 20.6044C12.7897 20.7309 12.8524 20.7959 12.9612 20.7959C13.1255 20.7959 13.2969 20.6694 13.479 20.4129V16.9654H14.2971V21.4758ZM17.4041 20.1209C17.4153 20.4262 17.3879 20.7316 17.3226 21.03C17.2126 21.3658 16.9939 21.5372 16.6688 21.5372C16.3779 21.5372 16.0965 21.3764 15.8234 21.0383V21.4758H15.0053V15.4214H15.8234V17.3993C16.0871 17.0742 16.3673 16.9098 16.6688 16.9098C16.9939 16.9098 17.2126 17.0813 17.3226 17.4194C17.3891 17.7172 17.4165 18.0225 17.4041 18.3274V20.1209ZM20.491 19.3678H18.856V20.1682C18.856 20.5855 18.9931 20.7948 19.2733 20.7948C19.4743 20.7948 19.5925 20.6848 19.6386 20.4661C19.6547 20.2817 19.6606 20.0966 19.6563 19.9116H20.491V20.0298C20.491 20.2935 20.4816 20.4756 20.4745 20.5571C20.4484 20.7327 20.383 20.9 20.2829 21.0466C20.1737 21.2061 20.0253 21.3348 19.8521 21.4205C19.6788 21.5062 19.4864 21.546 19.2934 21.536C19.1033 21.5454 18.9138 21.5081 18.7413 21.4276C18.5689 21.347 18.4187 21.2256 18.3038 21.0738C18.13 20.848 18.0414 20.4921 18.0414 20.0097V18.4361C18.0414 17.9538 18.1206 17.6015 18.2944 17.3721C18.4075 17.221 18.5558 17.0999 18.7264 17.0191C18.897 16.9383 19.0847 16.9004 19.2733 16.9087C19.4598 16.9006 19.6454 16.9387 19.8137 17.0195C19.982 17.1004 20.1277 17.2215 20.238 17.3721C20.4094 17.6003 20.491 17.9526 20.491 18.4361V19.3678Z" fill="currentColor"></path>
    <path d="M16.2302 17.6464C16.1527 17.6511 16.0769 17.6711 16.0071 17.7052C15.9373 17.7393 15.8749 17.7868 15.8235 17.845V20.5961C15.8743 20.6554 15.9364 20.7038 16.0063 20.7385C16.0762 20.7733 16.1523 20.7936 16.2302 20.7983C16.4666 20.7983 16.5849 20.5961 16.5849 20.1882V18.2623C16.5872 17.8544 16.4666 17.6464 16.2302 17.6464Z" fill="currentColor"></path>
    <path fill-rule="evenodd" clip-rule="evenodd" d="M13.3158 6.89722H12.3901L11.7647 9.29958L11.1144 6.89722H10.1509C10.3436 7.46352 10.5446 8.03456 10.742 8.60205C10.9715 9.23392 11.1584 9.8805 11.3012 10.5374V13.0202H12.2175V10.5374L13.3158 6.89722ZM15.7655 11.5376V9.94155C15.7655 9.45446 15.6815 9.0986 15.5089 8.86806C15.3942 8.72245 15.2479 8.60475 15.0811 8.52383C14.9143 8.44291 14.7313 8.40087 14.546 8.40087C14.3606 8.40087 14.1776 8.44291 14.0108 8.52383C13.844 8.60475 13.6977 8.72245 13.583 8.86806C13.4068 9.0986 13.3241 9.45919 13.3241 9.94155V11.5376C13.3241 12.0223 13.4068 12.3817 13.583 12.6099C13.6977 12.7555 13.844 12.8732 14.0108 12.9541C14.1776 13.0351 14.3606 13.0771 14.546 13.0771C14.7313 13.0771 14.9143 13.0351 15.0811 12.9541C15.2479 12.8732 15.3942 12.7555 15.5089 12.6099C15.6815 12.3829 15.7655 12.0235 15.7655 11.5376ZM14.9379 11.6937C14.9379 12.1157 14.8102 12.3262 14.543 12.3262C14.2758 12.3262 14.1493 12.1157 14.1493 11.6937V9.77604C14.1493 9.35397 14.277 9.14471 14.543 9.14471C14.809 9.14471 14.9379 9.35397 14.9379 9.77604V11.6937ZM18.8192 13.0143V8.45544H17.9917V11.9408C17.8084 12.1997 17.637 12.3274 17.4703 12.3274C17.3592 12.3274 17.2941 12.2623 17.2764 12.1347C17.2634 12.028 17.2598 11.9204 17.2658 11.8131V8.45544H16.4382V12.0614C16.4285 12.2896 16.4532 12.5179 16.5115 12.7388C16.5931 12.9752 16.7775 13.0781 17.0435 13.0781C17.3438 13.0781 17.6583 12.8949 17.9893 12.5177V13.0154L18.8192 13.0143Z" fill="currentColor"></path>
  </symbol>
</svg>